<svg width="24" height="24" viewBox="0 0 24 24" fill="none" xmlns="http://www.w3.org/2000/svg">
<path d="M23.9991 11.9271C23.971 9.64039 23.29 7.40928 22.0363 5.49656C20.7826 3.58386 19.0086 2.0692 16.923 1.131C14.8372 0.19279 12.5269 -0.12989 10.264 0.200935C8.00118 0.531775 5.87994 1.50233 4.15019 2.99836C2.42042 4.49437 1.15416 6.45352 0.500538 8.64507C-0.153072 10.8366 -0.166842 13.1693 0.460878 15.3684C1.0886 17.5676 2.33165 19.5414 4.04364 21.0578C5.75562 22.5741 7.86527 23.5697 10.1241 23.9271V15.4221H7.1241V11.9271H10.1241V9.27214C10.0546 8.65483 10.1215 8.02977 10.3201 7.4411C10.5187 6.85245 10.8441 6.31454 11.2732 5.86537C11.7024 5.41618 12.2248 5.06667 12.8038 4.8415C13.3828 4.61632 14.0043 4.52097 14.6241 4.56219C15.5238 4.5745 16.4214 4.65474 17.3091 4.80219V7.80219H15.8091C15.5505 7.76956 15.2877 7.79548 15.0405 7.87803C14.7931 7.96057 14.5675 8.09763 14.3803 8.27907C14.1931 8.46051 14.0491 8.6817 13.959 8.92624C13.8687 9.17089 13.8346 9.43264 13.8591 9.69214V11.9571H17.1891L16.6491 15.4521H13.8741V23.8521C16.7089 23.4038 19.2892 21.9542 21.1468 19.7663C23.0044 17.5784 24.0163 14.7972 23.9991 11.9271Z" fill="white"/>
</svg>
