<svg width="24" height="24" viewBox="0 0 24 24" fill="none" xmlns="http://www.w3.org/2000/svg">
<path d="M22.0795 0.00215257H2.05451C1.79641 -0.00993743 1.53844 0.0289879 1.29539 0.116723C1.05235 0.204458 0.828997 0.339262 0.638107 0.513412C0.447232 0.687577 0.292567 0.897682 0.182992 1.13168C0.073417 1.3657 0.0110617 1.61902 -0.000488281 1.87715V21.9472C0.0146317 22.4873 0.236001 23.0014 0.618156 23.3834C1.00031 23.7656 1.51427 23.987 2.05451 24.0022H22.0795C22.6047 23.9788 23.0998 23.7505 23.4588 23.3663C23.8177 22.9822 24.0118 22.4728 23.9995 21.9472V1.87715C24.0039 1.6259 23.9568 1.37644 23.8612 1.14403C23.7657 0.911633 23.6236 0.701198 23.4438 0.525622C23.2641 0.350062 23.0503 0.213083 22.8157 0.123068C22.5811 0.033053 22.3306 -0.00809243 22.0795 0.00215257ZM7.49951 20.0122H4.00451V9.3172H7.49951V20.0122ZM5.83451 7.69715C5.59063 7.70566 5.34761 7.66363 5.12075 7.57372C4.89388 7.48381 4.68805 7.34795 4.51621 7.17469C4.34435 7.00142 4.21018 6.7945 4.12213 6.5669C4.03406 6.33931 3.99403 6.09596 4.00451 5.85215C3.99373 5.6057 4.03457 5.35973 4.12444 5.13001C4.2143 4.90027 4.35119 4.69186 4.52632 4.51814C4.70146 4.34441 4.91096 4.20922 5.14141 4.12123C5.37187 4.03322 5.61817 3.99437 5.86451 4.00715C6.1084 3.99866 6.35141 4.04068 6.57827 4.13059C6.80515 4.2205 7.01098 4.35635 7.18282 4.52962C7.35467 4.70288 7.48885 4.90981 7.5769 5.1374C7.66496 5.365 7.705 5.60834 7.69451 5.85215C7.7053 6.0986 7.66445 6.34457 7.57459 6.5743C7.48472 6.80404 7.34783 7.01245 7.17271 7.18616C6.99757 7.35989 6.78806 7.49509 6.55762 7.58308C6.32716 7.67108 6.08086 7.70993 5.83451 7.69715ZM20.0095 20.0122H16.4995V14.1622C16.4995 12.7672 16.0045 11.8072 14.7595 11.8072C14.3728 11.8105 13.9965 11.9333 13.6824 12.1589C13.3681 12.3845 13.1314 12.7018 13.0045 13.0672C12.907 13.3411 12.8662 13.6319 12.8845 13.9222V20.0122H9.43451V9.3172H12.8845V10.8172C13.1913 10.2536 13.6477 9.78595 14.2036 9.46555C14.7595 9.1453 15.3931 8.98492 16.0345 9.00215C18.2995 9.00215 20.0095 10.5022 20.0095 13.6972V20.0122Z" fill="white"/>
</svg>
