<svg width="69" height="57" viewBox="0 0 69 57" fill="none" xmlns="http://www.w3.org/2000/svg">
<path d="M33.9932 4.73421C33.9932 5.49169 33.8074 6.12292 33.4359 6.6279C33.0644 7.00664 32.5071 7.32226 31.7641 7.57474C26.4391 9.72093 22.4144 12.6246 19.69 16.2857C17.0895 19.8206 15.7892 23.7342 15.7892 28.0266C15.7892 29.289 15.9749 30.4884 16.3464 31.6246C16.718 32.7608 18.0182 35.1595 20.2473 38.8206L9.84502 30.299C11.7026 29.5415 13.622 29.1628 15.6034 29.1628C19.1947 29.1628 22.1668 30.3621 24.5197 32.7608C26.9964 35.1595 28.2348 38.3156 28.2348 42.2292C28.2348 46.9003 26.7487 50.5615 23.7767 53.2126C20.9284 55.7375 17.5229 57 13.5601 57C9.102 57 5.69649 55.3588 3.34359 52.0764C1.11453 48.794 0 44.691 0 39.7674C0 33.2027 0.990694 27.4585 2.97208 22.5349C4.95347 17.4851 7.49212 13.3189 10.588 10.0365C13.684 6.75415 16.9656 4.29236 20.4331 2.65116C23.9005 0.883721 27.0583 0 29.9066 0C31.0211 0 31.9499 0.568107 32.6929 1.70432C33.5598 2.71428 33.9932 3.72425 33.9932 4.73421ZM68.7294 4.73421C68.7294 5.49169 68.5436 6.12292 68.1721 6.6279C67.8006 7.00664 67.2433 7.32226 66.5003 7.57474C61.1753 9.72093 57.1506 12.6246 54.4262 16.2857C51.8257 19.8206 50.5254 23.7342 50.5254 28.0266C50.5254 29.289 50.7111 30.4884 51.0827 31.6246C51.4542 32.7608 52.7544 35.1595 54.9835 38.8206L44.5812 30.299C46.4388 29.5415 48.3582 29.1628 50.3396 29.1628C53.9309 29.1628 56.903 30.3621 59.2559 32.7608C61.7326 35.1595 62.971 38.3156 62.971 42.2292C62.971 46.9003 61.4849 50.5615 58.5129 53.2126C55.6646 55.7375 52.2591 57 48.2963 57C43.8382 57 40.4327 55.3588 38.0798 52.0764C35.8507 48.794 34.7362 44.691 34.7362 39.7674C34.7362 33.2027 35.7269 27.4585 37.7083 22.5349C39.6897 17.4851 42.2283 13.3189 45.3242 10.0365C48.4202 6.75415 51.7018 4.29236 55.1693 2.65116C58.6367 0.883721 61.7945 0 64.6428 0C65.7573 0 66.6861 0.568107 67.4291 1.70432C68.296 2.71428 68.7294 3.72425 68.7294 4.73421Z" fill="black" fill-opacity="0.08"/>
</svg>
